<mxfile host="app.diagrams.net" modified="2020-12-28T09:33:39.606Z" agent="5.0 (Macintosh; Intel Mac OS X 10_15_6) AppleWebKit/605.1.15 (KHTML, like Gecko) Version/14.0.2 Safari/605.1.15" etag="Ym4SknHcNRnIbM9UGIEP" version="14.1.2" type="github">
  <diagram name="Page-1" id="5f0bae14-7c28-e335-631c-24af17079c00">
    <mxGraphModel dx="1426" dy="945" grid="1" gridSize="10" guides="1" tooltips="1" connect="1" arrows="1" fold="1" page="1" pageScale="1" pageWidth="1100" pageHeight="850" background="#ffffff" math="0" shadow="0">
      <root>
        <mxCell id="0" />
        <mxCell id="1" parent="0" />
        <mxCell id="vIjA369l-1uuV4axcZcj-1" value="UserRouter" style="swimlane;fontStyle=1;align=center;verticalAlign=top;childLayout=stackLayout;horizontal=1;startSize=26;horizontalStack=0;resizeParent=1;resizeParentMax=0;resizeLast=0;collapsible=1;marginBottom=0;" vertex="1" parent="1">
          <mxGeometry x="90" y="120" width="250" height="180" as="geometry" />
        </mxCell>
        <mxCell id="vIjA369l-1uuV4axcZcj-2" value="+ router: Router" style="text;strokeColor=none;fillColor=none;align=left;verticalAlign=top;spacingLeft=4;spacingRight=4;overflow=hidden;rotatable=0;points=[[0,0.5],[1,0.5]];portConstraint=eastwest;" vertex="1" parent="vIjA369l-1uuV4axcZcj-1">
          <mxGeometry y="26" width="250" height="26" as="geometry" />
        </mxCell>
        <mxCell id="vIjA369l-1uuV4axcZcj-3" value="" style="line;strokeWidth=1;fillColor=none;align=left;verticalAlign=middle;spacingTop=-1;spacingLeft=3;spacingRight=3;rotatable=0;labelPosition=right;points=[];portConstraint=eastwest;" vertex="1" parent="vIjA369l-1uuV4axcZcj-1">
          <mxGeometry y="52" width="250" height="8" as="geometry" />
        </mxCell>
        <mxCell id="vIjA369l-1uuV4axcZcj-4" value="router.get(&quot;/&quot;, getAllUsers) (A)&#xa;router.get(&quot;/:_id&quot;, getUserById)(S)&#xa;router.post(&quot;/register&quot;, registerNewUser)(S)&#xa;router.put() (A, S)&#xa;router.delete (&quot;/:_id&quot;) (A)" style="text;strokeColor=none;fillColor=none;align=left;verticalAlign=top;spacingLeft=4;spacingRight=4;overflow=hidden;rotatable=0;points=[[0,0.5],[1,0.5]];portConstraint=eastwest;" vertex="1" parent="vIjA369l-1uuV4axcZcj-1">
          <mxGeometry y="60" width="250" height="120" as="geometry" />
        </mxCell>
        <mxCell id="vIjA369l-1uuV4axcZcj-5" value="SessionRouter" style="swimlane;fontStyle=1;align=center;verticalAlign=top;childLayout=stackLayout;horizontal=1;startSize=26;horizontalStack=0;resizeParent=1;resizeParentMax=0;resizeLast=0;collapsible=1;marginBottom=0;" vertex="1" parent="1">
          <mxGeometry x="90" y="330" width="270" height="120" as="geometry" />
        </mxCell>
        <mxCell id="vIjA369l-1uuV4axcZcj-6" value="+ router: Router" style="text;strokeColor=none;fillColor=none;align=left;verticalAlign=top;spacingLeft=4;spacingRight=4;overflow=hidden;rotatable=0;points=[[0,0.5],[1,0.5]];portConstraint=eastwest;" vertex="1" parent="vIjA369l-1uuV4axcZcj-5">
          <mxGeometry y="26" width="270" height="26" as="geometry" />
        </mxCell>
        <mxCell id="vIjA369l-1uuV4axcZcj-7" value="" style="line;strokeWidth=1;fillColor=none;align=left;verticalAlign=middle;spacingTop=-1;spacingLeft=3;spacingRight=3;rotatable=0;labelPosition=right;points=[];portConstraint=eastwest;" vertex="1" parent="vIjA369l-1uuV4axcZcj-5">
          <mxGeometry y="52" width="270" height="8" as="geometry" />
        </mxCell>
        <mxCell id="vIjA369l-1uuV4axcZcj-8" value="router.post(&quot;/login&quot;, findUserByName, logIn) &#xa;router.delete(&quot;/logout&quot;, logOut) (S)&#xa;router.get(&quot;/&quot;, checkIfLogin) (S)" style="text;strokeColor=none;fillColor=none;align=left;verticalAlign=top;spacingLeft=4;spacingRight=4;overflow=hidden;rotatable=0;points=[[0,0.5],[1,0.5]];portConstraint=eastwest;" vertex="1" parent="vIjA369l-1uuV4axcZcj-5">
          <mxGeometry y="60" width="270" height="60" as="geometry" />
        </mxCell>
        <mxCell id="vIjA369l-1uuV4axcZcj-9" value="UsersModel" style="swimlane;fontStyle=1;childLayout=stackLayout;horizontal=1;startSize=26;horizontalStack=0;resizeParent=1;resizeParentMax=0;resizeLast=0;collapsible=1;marginBottom=0;align=center;fontSize=14;" vertex="1" parent="1">
          <mxGeometry x="730" y="130" width="320" height="110" as="geometry" />
        </mxCell>
        <mxCell id="vIjA369l-1uuV4axcZcj-10" value="+ userSchema = new mongoose.Schema&#xa;&#xa;module.exports = mongoose.model(&#39;User&#39;, userSchema)&#xa;&#xa;See ER-diagram for details. " style="text;strokeColor=none;fillColor=none;spacingLeft=4;spacingRight=4;overflow=hidden;rotatable=0;points=[[0,0.5],[1,0.5]];portConstraint=eastwest;fontSize=11;" vertex="1" parent="vIjA369l-1uuV4axcZcj-9">
          <mxGeometry y="26" width="320" height="84" as="geometry" />
        </mxCell>
        <mxCell id="vIjA369l-1uuV4axcZcj-11" value="UserControllers" style="swimlane;fontStyle=1;align=center;verticalAlign=top;childLayout=stackLayout;horizontal=1;startSize=26;horizontalStack=0;resizeParent=1;resizeParentMax=0;resizeLast=0;collapsible=1;marginBottom=0;" vertex="1" parent="1">
          <mxGeometry x="454" y="112" width="160" height="128" as="geometry" />
        </mxCell>
        <mxCell id="vIjA369l-1uuV4axcZcj-12" value="" style="line;strokeWidth=1;fillColor=none;align=left;verticalAlign=middle;spacingTop=-1;spacingLeft=3;spacingRight=3;rotatable=0;labelPosition=right;points=[];portConstraint=eastwest;" vertex="1" parent="vIjA369l-1uuV4axcZcj-11">
          <mxGeometry y="26" width="160" height="8" as="geometry" />
        </mxCell>
        <mxCell id="vIjA369l-1uuV4axcZcj-13" value="+ registerNewUser(req,res)&#xa;+ getAllUsers(req,res)&#xa;+ getUserById(req,res)&#xa;+ deleteUserById(req,res)&#xa;+ updateUser(req,res)" style="text;strokeColor=none;fillColor=none;align=left;verticalAlign=top;spacingLeft=4;spacingRight=4;overflow=hidden;rotatable=0;points=[[0,0.5],[1,0.5]];portConstraint=eastwest;" vertex="1" parent="vIjA369l-1uuV4axcZcj-11">
          <mxGeometry y="34" width="160" height="94" as="geometry" />
        </mxCell>
        <mxCell id="vIjA369l-1uuV4axcZcj-14" style="edgeStyle=orthogonalEdgeStyle;rounded=0;orthogonalLoop=1;jettySize=auto;html=1;endArrow=none;endFill=0;startArrow=diamond;startFill=1;" edge="1" parent="1" source="vIjA369l-1uuV4axcZcj-34" target="vIjA369l-1uuV4axcZcj-30">
          <mxGeometry relative="1" as="geometry">
            <mxPoint x="400" y="608" as="targetPoint" />
            <Array as="points">
              <mxPoint x="406" y="608" />
              <mxPoint x="406" y="605" />
            </Array>
          </mxGeometry>
        </mxCell>
        <mxCell id="vIjA369l-1uuV4axcZcj-15" style="edgeStyle=orthogonalEdgeStyle;rounded=0;orthogonalLoop=1;jettySize=auto;html=1;endArrow=none;endFill=0;startArrow=diamond;startFill=1;" edge="1" parent="1" source="vIjA369l-1uuV4axcZcj-30">
          <mxGeometry relative="1" as="geometry">
            <mxPoint x="726" y="570" as="targetPoint" />
            <Array as="points">
              <mxPoint x="670" y="570" />
              <mxPoint x="670" y="570" />
            </Array>
          </mxGeometry>
        </mxCell>
        <mxCell id="vIjA369l-1uuV4axcZcj-16" style="edgeStyle=orthogonalEdgeStyle;rounded=0;orthogonalLoop=1;jettySize=auto;html=1;endArrow=none;endFill=0;startArrow=diamond;startFill=1;entryX=-0.025;entryY=0.362;entryDx=0;entryDy=0;entryPerimeter=0;" edge="1" parent="1" source="vIjA369l-1uuV4axcZcj-4" target="vIjA369l-1uuV4axcZcj-13">
          <mxGeometry relative="1" as="geometry">
            <mxPoint x="440" y="180" as="targetPoint" />
            <Array as="points">
              <mxPoint x="370" y="180" />
              <mxPoint x="370" y="180" />
            </Array>
          </mxGeometry>
        </mxCell>
        <mxCell id="vIjA369l-1uuV4axcZcj-17" style="edgeStyle=orthogonalEdgeStyle;rounded=0;orthogonalLoop=1;jettySize=auto;html=1;endArrow=none;endFill=0;startArrow=diamond;startFill=1;" edge="1" parent="1" source="vIjA369l-1uuV4axcZcj-13">
          <mxGeometry relative="1" as="geometry">
            <mxPoint x="727" y="180" as="targetPoint" />
            <Array as="points">
              <mxPoint x="727" y="180" />
            </Array>
          </mxGeometry>
        </mxCell>
        <mxCell id="vIjA369l-1uuV4axcZcj-18" value="&lt;font style=&quot;font-size: 18px&quot;&gt;&lt;b&gt;Koddiagram&lt;/b&gt;&lt;/font&gt;" style="text;html=1;align=center;verticalAlign=middle;resizable=0;points=[];autosize=1;fontSize=12;" vertex="1" parent="1">
          <mxGeometry x="490" y="70" width="120" height="20" as="geometry" />
        </mxCell>
        <mxCell id="vIjA369l-1uuV4axcZcj-19" style="edgeStyle=orthogonalEdgeStyle;rounded=0;orthogonalLoop=1;jettySize=auto;html=1;fontSize=12;startArrow=diamond;startFill=1;endArrow=none;endFill=0;entryX=0;entryY=0.5;entryDx=0;entryDy=0;" edge="1" parent="1" source="vIjA369l-1uuV4axcZcj-8" target="vIjA369l-1uuV4axcZcj-27">
          <mxGeometry relative="1" as="geometry">
            <mxPoint x="406" y="395" as="targetPoint" />
            <Array as="points">
              <mxPoint x="406" y="395" />
              <mxPoint x="406" y="397" />
            </Array>
          </mxGeometry>
        </mxCell>
        <mxCell id="vIjA369l-1uuV4axcZcj-20" style="edgeStyle=orthogonalEdgeStyle;rounded=0;orthogonalLoop=1;jettySize=auto;html=1;entryX=0.114;entryY=1.029;entryDx=0;entryDy=0;entryPerimeter=0;fontSize=12;endArrow=none;endFill=0;startArrow=diamond;startFill=1;" edge="1" parent="1" source="vIjA369l-1uuV4axcZcj-27" target="vIjA369l-1uuV4axcZcj-10">
          <mxGeometry relative="1" as="geometry">
            <mxPoint x="731.98" y="280.35" as="targetPoint" />
            <Array as="points">
              <mxPoint x="766" y="380" />
            </Array>
          </mxGeometry>
        </mxCell>
        <mxCell id="vIjA369l-1uuV4axcZcj-21" value="RoomModel" style="swimlane;fontStyle=1;childLayout=stackLayout;horizontal=1;startSize=26;horizontalStack=0;resizeParent=1;resizeParentMax=0;resizeLast=0;collapsible=1;marginBottom=0;align=center;fontSize=14;" vertex="1" parent="1">
          <mxGeometry x="730" y="490" width="350" height="140" as="geometry" />
        </mxCell>
        <mxCell id="vIjA369l-1uuV4axcZcj-22" value="+ roomSchema = new mongoose.Schema&#xa;&#xa;module.exports = mongoose.model(&#39;Room&#39;, roomSchema)&#xa;&#xa;See ER-diagram for details. " style="text;strokeColor=none;fillColor=none;spacingLeft=4;spacingRight=4;overflow=hidden;rotatable=0;points=[[0,0.5],[1,0.5]];portConstraint=eastwest;fontSize=12;" vertex="1" parent="vIjA369l-1uuV4axcZcj-21">
          <mxGeometry y="26" width="350" height="114" as="geometry" />
        </mxCell>
        <mxCell id="vIjA369l-1uuV4axcZcj-23" style="edgeStyle=orthogonalEdgeStyle;rounded=0;orthogonalLoop=1;jettySize=auto;html=1;entryX=1.012;entryY=0.728;entryDx=0;entryDy=0;entryPerimeter=0;startArrow=none;startFill=0;endArrow=diamond;endFill=1;" edge="1" parent="1" source="vIjA369l-1uuV4axcZcj-25" target="vIjA369l-1uuV4axcZcj-4">
          <mxGeometry relative="1" as="geometry" />
        </mxCell>
        <mxCell id="vIjA369l-1uuV4axcZcj-24" style="edgeStyle=orthogonalEdgeStyle;rounded=0;orthogonalLoop=1;jettySize=auto;html=1;entryX=1.022;entryY=1.02;entryDx=0;entryDy=0;entryPerimeter=0;startArrow=none;startFill=0;endArrow=diamond;endFill=1;" edge="1" parent="1" source="vIjA369l-1uuV4axcZcj-25" target="vIjA369l-1uuV4axcZcj-32">
          <mxGeometry relative="1" as="geometry">
            <Array as="points">
              <mxPoint x="589" y="470" />
              <mxPoint x="350" y="470" />
              <mxPoint x="350" y="562" />
            </Array>
          </mxGeometry>
        </mxCell>
        <mxCell id="vIjA369l-1uuV4axcZcj-25" value="SessionControllers" style="swimlane;fontStyle=1;align=center;verticalAlign=top;childLayout=stackLayout;horizontal=1;startSize=26;horizontalStack=0;resizeParent=1;resizeParentMax=0;resizeLast=0;collapsible=1;marginBottom=0;" vertex="1" parent="1">
          <mxGeometry x="474" y="320" width="230" height="120" as="geometry" />
        </mxCell>
        <mxCell id="vIjA369l-1uuV4axcZcj-26" value="" style="line;strokeWidth=1;fillColor=none;align=left;verticalAlign=middle;spacingTop=-1;spacingLeft=3;spacingRight=3;rotatable=0;labelPosition=right;points=[];portConstraint=eastwest;" vertex="1" parent="vIjA369l-1uuV4axcZcj-25">
          <mxGeometry y="26" width="230" height="8" as="geometry" />
        </mxCell>
        <mxCell id="vIjA369l-1uuV4axcZcj-27" value="+ findUserByName(req,res)&#xa;+ logIn(req, res) &#xa;+ checkIfLogin()&#xa;+ validateRole(role): (req,res) =&gt; void&#xa;+ logOut()" style="text;strokeColor=none;fillColor=none;align=left;verticalAlign=top;spacingLeft=4;spacingRight=4;overflow=hidden;rotatable=0;points=[[0,0.5],[1,0.5]];portConstraint=eastwest;" vertex="1" parent="vIjA369l-1uuV4axcZcj-25">
          <mxGeometry y="34" width="230" height="86" as="geometry" />
        </mxCell>
        <mxCell id="vIjA369l-1uuV4axcZcj-28" value="RoomControllers" style="swimlane;fontStyle=1;align=center;verticalAlign=top;childLayout=stackLayout;horizontal=1;startSize=26;horizontalStack=0;resizeParent=1;resizeParentMax=0;resizeLast=0;collapsible=1;marginBottom=0;" vertex="1" parent="1">
          <mxGeometry x="450" y="490" width="220" height="144" as="geometry" />
        </mxCell>
        <mxCell id="vIjA369l-1uuV4axcZcj-29" value="" style="line;strokeWidth=1;fillColor=none;align=left;verticalAlign=middle;spacingTop=-1;spacingLeft=3;spacingRight=3;rotatable=0;labelPosition=right;points=[];portConstraint=eastwest;" vertex="1" parent="vIjA369l-1uuV4axcZcj-28">
          <mxGeometry y="26" width="220" height="8" as="geometry" />
        </mxCell>
        <mxCell id="vIjA369l-1uuV4axcZcj-30" value="&#xa;+ updateRoom(req,res) &#xa;+ getAllRooms(req,res)&#xa;+ getRoomsById(req,res)" style="text;strokeColor=none;fillColor=none;align=left;verticalAlign=top;spacingLeft=4;spacingRight=4;overflow=hidden;rotatable=0;points=[[0,0.5],[1,0.5]];portConstraint=eastwest;" vertex="1" parent="vIjA369l-1uuV4axcZcj-28">
          <mxGeometry y="34" width="220" height="110" as="geometry" />
        </mxCell>
        <mxCell id="vIjA369l-1uuV4axcZcj-31" value="RoomRouter" style="swimlane;fontStyle=1;align=center;verticalAlign=top;childLayout=stackLayout;horizontal=1;startSize=26;horizontalStack=0;resizeParent=1;resizeParentMax=0;resizeLast=0;collapsible=1;marginBottom=0;" vertex="1" parent="1">
          <mxGeometry x="35" y="509.5" width="270" height="170" as="geometry" />
        </mxCell>
        <mxCell id="vIjA369l-1uuV4axcZcj-32" value="+ router: Router" style="text;strokeColor=none;fillColor=none;align=left;verticalAlign=top;spacingLeft=4;spacingRight=4;overflow=hidden;rotatable=0;points=[[0,0.5],[1,0.5]];portConstraint=eastwest;" vertex="1" parent="vIjA369l-1uuV4axcZcj-31">
          <mxGeometry y="26" width="270" height="26" as="geometry" />
        </mxCell>
        <mxCell id="vIjA369l-1uuV4axcZcj-33" value="" style="line;strokeWidth=1;fillColor=none;align=left;verticalAlign=middle;spacingTop=-1;spacingLeft=3;spacingRight=3;rotatable=0;labelPosition=right;points=[];portConstraint=eastwest;" vertex="1" parent="vIjA369l-1uuV4axcZcj-31">
          <mxGeometry y="52" width="270" height="8" as="geometry" />
        </mxCell>
        <mxCell id="vIjA369l-1uuV4axcZcj-34" value="router.get(&quot;/&quot;, getAllRooms)&#xa;router.get(&quot;/:roomId&quot;, getRoomById)&#xa;router.post(&quot;/&quot;) (A, S)&#xa;router.put(&quot;/:roomId&quot;, updateRoom) (A. S)&#xa;router.delete(&quot;/:productId&quot;)(A, S)&#xa;" style="text;strokeColor=none;fillColor=none;align=left;verticalAlign=top;spacingLeft=4;spacingRight=4;overflow=hidden;rotatable=0;points=[[0,0.5],[1,0.5]];portConstraint=eastwest;" vertex="1" parent="vIjA369l-1uuV4axcZcj-31">
          <mxGeometry y="60" width="270" height="110" as="geometry" />
        </mxCell>
        <mxCell id="vIjA369l-1uuV4axcZcj-35" value="S = secure, only logged in users can access" style="text;html=1;align=center;verticalAlign=middle;resizable=0;points=[];autosize=1;fontSize=13;fontStyle=1" vertex="1" parent="1">
          <mxGeometry x="267" y="940" width="290" height="20" as="geometry" />
        </mxCell>
        <mxCell id="vIjA369l-1uuV4axcZcj-36" value="A = admin, only admin can access" style="text;html=1;align=center;verticalAlign=middle;resizable=0;points=[];autosize=1;fontSize=13;fontStyle=1" vertex="1" parent="1">
          <mxGeometry x="630" y="940" width="230" height="20" as="geometry" />
        </mxCell>
        <mxCell id="vIjA369l-1uuV4axcZcj-37" value="&lt;span style=&quot;color: rgba(0 , 0 , 0 , 0) ; font-family: monospace ; font-size: 0px&quot;&gt;%3CmxGraphModel%3E%3Croot%3E%3CmxCell%20id%3D%220%22%2F%3E%3CmxCell%20id%3D%221%22%20parent%3D%220%22%2F%3E%3CmxCell%20id%3D%222%22%20value%3D%22ProductControllers%22%20style%3D%22swimlane%3BfontStyle%3D1%3Balign%3Dcenter%3BverticalAlign%3Dtop%3BchildLayout%3DstackLayout%3Bhorizontal%3D1%3BstartSize%3D26%3BhorizontalStack%3D0%3BresizeParent%3D1%3BresizeParentMax%3D0%3BresizeLast%3D0%3Bcollapsible%3D1%3BmarginBottom%3D0%3B%22%20vertex%3D%221%22%20parent%3D%221%22%3E%3CmxGeometry%20x%3D%22380%22%20y%3D%22530%22%20width%3D%22160%22%20height%3D%22160%22%20as%3D%22geometry%22%2F%3E%3C%2FmxCell%3E%3CmxCell%20id%3D%223%22%20value%3D%22%2B%20field%3A%20type%22%20style%3D%22text%3BstrokeColor%3Dnone%3BfillColor%3Dnone%3Balign%3Dleft%3BverticalAlign%3Dtop%3BspacingLeft%3D4%3BspacingRight%3D4%3Boverflow%3Dhidden%3Brotatable%3D0%3Bpoints%3D%5B%5B0%2C0.5%5D%2C%5B1%2C0.5%5D%5D%3BportConstraint%3Deastwest%3B%22%20vertex%3D%221%22%20parent%3D%222%22%3E%3CmxGeometry%20y%3D%2226%22%20width%3D%22160%22%20height%3D%2226%22%20as%3D%22geometry%22%2F%3E%3C%2FmxCell%3E%3CmxCell%20id%3D%224%22%20value%3D%22%22%20style%3D%22line%3BstrokeWidth%3D1%3BfillColor%3Dnone%3Balign%3Dleft%3BverticalAlign%3Dmiddle%3BspacingTop%3D-1%3BspacingLeft%3D3%3BspacingRight%3D3%3Brotatable%3D0%3BlabelPosition%3Dright%3Bpoints%3D%5B%5D%3BportConstraint%3Deastwest%3B%22%20vertex%3D%221%22%20parent%3D%222%22%3E%3CmxGeometry%20y%3D%2252%22%20width%3D%22160%22%20height%3D%228%22%20as%3D%22geometry%22%2F%3E%3C%2FmxCell%3E%3CmxCell%20id%3D%225%22%20value%3D%22updateProductStock()%26%2310%3BdeleteProduct()%26%2310%3BgetAllProducts()%26%2310%3BgetProductsFromCategory()%26%2310%3BgetProductById()%22%20style%3D%22text%3BstrokeColor%3Dnone%3BfillColor%3Dnone%3Balign%3Dleft%3BverticalAlign%3Dtop%3BspacingLeft%3D4%3BspacingRight%3D4%3Boverflow%3Dhidden%3Brotatable%3D0%3Bpoints%3D%5B%5B0%2C0.5%5D%2C%5B1%2C0.5%5D%5D%3BportConstraint%3Deastwest%3B%22%20vertex%3D%221%22%20parent%3D%222%22%3E%3CmxGeometry%20y%3D%2260%22%20width%3D%22160%22%20height%3D%22100%22%20as%3D%22geometry%22%2F%3E%3C%2FmxCell%3E%3C%2Froot%3E%3C%2FmxGraphModel%3E&lt;/span&gt;" style="text;html=1;align=center;verticalAlign=middle;resizable=0;points=[];autosize=1;" vertex="1" parent="1">
          <mxGeometry x="402" y="769" width="20" height="20" as="geometry" />
        </mxCell>
        <mxCell id="vIjA369l-1uuV4axcZcj-38" value="ProjectControllers" style="swimlane;fontStyle=1;align=center;verticalAlign=top;childLayout=stackLayout;horizontal=1;startSize=26;horizontalStack=0;resizeParent=1;resizeParentMax=0;resizeLast=0;collapsible=1;marginBottom=0;" vertex="1" parent="1">
          <mxGeometry x="402" y="730" width="180" height="104" as="geometry" />
        </mxCell>
        <mxCell id="vIjA369l-1uuV4axcZcj-39" value="+ getAllOrders(req,res) &#xa;+ getOrderByUserId(req,res)&#xa;+ createOrder(req,res)&#xa;" style="text;strokeColor=none;fillColor=none;align=left;verticalAlign=top;spacingLeft=4;spacingRight=4;overflow=hidden;rotatable=0;points=[[0,0.5],[1,0.5]];portConstraint=eastwest;" vertex="1" parent="vIjA369l-1uuV4axcZcj-38">
          <mxGeometry y="26" width="180" height="70" as="geometry" />
        </mxCell>
        <mxCell id="vIjA369l-1uuV4axcZcj-40" value="" style="line;strokeWidth=1;fillColor=none;align=left;verticalAlign=middle;spacingTop=-1;spacingLeft=3;spacingRight=3;rotatable=0;labelPosition=right;points=[];portConstraint=eastwest;" vertex="1" parent="vIjA369l-1uuV4axcZcj-38">
          <mxGeometry y="96" width="180" height="8" as="geometry" />
        </mxCell>
        <mxCell id="vIjA369l-1uuV4axcZcj-41" style="edgeStyle=orthogonalEdgeStyle;rounded=0;orthogonalLoop=1;jettySize=auto;html=1;entryX=-0.01;entryY=0.769;entryDx=0;entryDy=0;entryPerimeter=0;endArrow=none;endFill=0;startArrow=diamond;startFill=1;exitX=1.012;exitY=0.876;exitDx=0;exitDy=0;exitPerimeter=0;" edge="1" parent="1" source="vIjA369l-1uuV4axcZcj-46">
          <mxGeometry relative="1" as="geometry">
            <Array as="points">
              <mxPoint x="273" y="776" />
            </Array>
            <mxPoint x="240" y="776" as="sourcePoint" />
            <mxPoint x="400.20000000000005" y="775.9939999999999" as="targetPoint" />
          </mxGeometry>
        </mxCell>
        <mxCell id="vIjA369l-1uuV4axcZcj-42" style="edgeStyle=orthogonalEdgeStyle;rounded=0;orthogonalLoop=1;jettySize=auto;html=1;entryX=0;entryY=0.5;entryDx=0;entryDy=0;endArrow=none;endFill=0;startArrow=diamond;startFill=1;" edge="1" parent="1" source="vIjA369l-1uuV4axcZcj-39" target="vIjA369l-1uuV4axcZcj-44">
          <mxGeometry relative="1" as="geometry">
            <mxPoint x="714" y="825" as="targetPoint" />
            <Array as="points">
              <mxPoint x="630" y="793" />
              <mxPoint x="630" y="793" />
            </Array>
          </mxGeometry>
        </mxCell>
        <mxCell id="vIjA369l-1uuV4axcZcj-43" value="ProjectModel" style="swimlane;fontStyle=1;childLayout=stackLayout;horizontal=1;startSize=26;horizontalStack=0;resizeParent=1;resizeParentMax=0;resizeLast=0;collapsible=1;marginBottom=0;align=center;fontSize=14;" vertex="1" parent="1">
          <mxGeometry x="720" y="720" width="330" height="120" as="geometry" />
        </mxCell>
        <mxCell id="vIjA369l-1uuV4axcZcj-44" value="+ orderSchema = new mongoose.Schema&#xa;&#xa;module.exports = mongoose.model(&#39;Order&#39;, orderSchema)&#xa;&#xa;See ER-diagram for details. " style="text;strokeColor=none;fillColor=none;spacingLeft=4;spacingRight=4;overflow=hidden;rotatable=0;points=[[0,0.5],[1,0.5]];portConstraint=eastwest;fontSize=12;" vertex="1" parent="vIjA369l-1uuV4axcZcj-43">
          <mxGeometry y="26" width="330" height="94" as="geometry" />
        </mxCell>
        <mxCell id="vIjA369l-1uuV4axcZcj-45" value="ProjectRouter" style="swimlane;fontStyle=1;align=center;verticalAlign=top;childLayout=stackLayout;horizontal=1;startSize=26;horizontalStack=0;resizeParent=1;resizeParentMax=0;resizeLast=0;collapsible=1;marginBottom=0;" vertex="1" parent="1">
          <mxGeometry x="25" y="730" width="245" height="140" as="geometry" />
        </mxCell>
        <mxCell id="vIjA369l-1uuV4axcZcj-46" value="+ router: Router" style="text;strokeColor=none;fillColor=none;align=left;verticalAlign=top;spacingLeft=4;spacingRight=4;overflow=hidden;rotatable=0;points=[[0,0.5],[1,0.5]];portConstraint=eastwest;" vertex="1" parent="vIjA369l-1uuV4axcZcj-45">
          <mxGeometry y="26" width="245" height="26" as="geometry" />
        </mxCell>
        <mxCell id="vIjA369l-1uuV4axcZcj-47" value="" style="line;strokeWidth=1;fillColor=none;align=left;verticalAlign=middle;spacingTop=-1;spacingLeft=3;spacingRight=3;rotatable=0;labelPosition=right;points=[];portConstraint=eastwest;" vertex="1" parent="vIjA369l-1uuV4axcZcj-45">
          <mxGeometry y="52" width="245" height="8" as="geometry" />
        </mxCell>
        <mxCell id="vIjA369l-1uuV4axcZcj-48" value="router.get(&quot;/&quot;, getAllProjects) (A)&#xa;router.get(&quot;/:userId&quot;, getOrderByUserId)(S)&#xa;router.post(&quot;/&quot;, createOrder) (S)&#xa;&#xa;" style="text;strokeColor=none;fillColor=none;align=left;verticalAlign=top;spacingLeft=4;spacingRight=4;overflow=hidden;rotatable=0;points=[[0,0.5],[1,0.5]];portConstraint=eastwest;" vertex="1" parent="vIjA369l-1uuV4axcZcj-45">
          <mxGeometry y="60" width="245" height="80" as="geometry" />
        </mxCell>
      </root>
    </mxGraphModel>
  </diagram>
</mxfile>
